# xmcd
#
# Track frame offsets:
#	150
#	10267
#	23398
#	35948
#	50629
#	64703
#	77172
#	90800
#	103364
#	116821
#	128856
#	142929
#	161914
#	190317
#	233317
#
# Disc length: 3542 seconds
#
# Revision: 2
# Processed by: cddbd v1.5.2PL0 Copyright (c) Steve Scherf et al.
# Submitted via: audiograbber 1.83.01
#
DISCID=c10dd40f
DTITLE=Dizzy Gillespie - A Night In Tunisia
DYEAR=2007
DGENRE=Jazz
TTITLE0=Lionel Hampton Orchestra - Hot Mallets
TTITLE1=Dizzy Gillespie Orchestra - Blue 'n Boogie
TTITLE2=Dizzy Gillespie Sextet - Dizzy Atmosphere
TTITLE3=Dizzy Gillespie Quintet - Salt Peanuts
TTITLE4=Dizzy Gillespie Orchestra - A Night In Tunisia
TTITLE5=Dizzy Gillespie Orchestra - Ol' Man Rebop
TTITLE6=Dizzy Gillespie Sextet - Oop-Bop-Sh'Bam
TTITLE7=Dizzy Gillespie Orchestra - Things To Come
TTITLE8=Dizzy Gillespie Orchestra - Algo Bueno
TTITLE9=Dizzy Gillespie Orchestra - Cubana Be
TTITLE10=Dizzy Gillespie Orchestra - Cubana Bop
TTITLE11=Dizzy Gillespie Sextet - Tin Tin Deo
TTITLE12=Dizzy Gillespie - Stan Getz Sextet - I Let A Song Go Out Of My Heart
TTITLE13=Dizzy Gillespie All Stars - Lover Come Back To Me
TTITLE14=Dizzy Gillespie Orchestra - Manteca
EXTD=noble jazz BASICS 0181352ERE
EXTT0=
EXTT1=
EXTT2=
EXTT3=
EXTT4=
EXTT5=
EXTT6=
EXTT7=
EXTT8=
EXTT9=
EXTT10=
EXTT11=
EXTT12=
EXTT13=
EXTT14=
PLAYORDER=
